#N canvas 474 50 796 639 12;
#N canvas 111 50 741 663 12allPass 1;
#X obj 320 61 rpole~;
#X obj 320 42 rzero_rev~;
#X obj 320 109 rpole~;
#X obj 320 91 rzero_rev~;
#X obj 320 158 rpole~;
#X obj 320 139 rzero_rev~;
#X obj 319 208 rpole~;
#X obj 320 188 rzero_rev~;
#X obj 321 21 inlet~;
#X obj 318 255 rpole~;
#X obj 318 236 rzero_rev~;
#X obj 318 303 rpole~;
#X obj 318 285 rzero_rev~;
#X obj 318 352 rpole~;
#X obj 318 333 rzero_rev~;
#X obj 317 402 rpole~;
#X obj 318 382 rzero_rev~;
#X obj 317 446 rpole~;
#X obj 317 427 rzero_rev~;
#X obj 317 494 rpole~;
#X obj 317 476 rzero_rev~;
#X obj 317 543 rpole~;
#X obj 317 524 rzero_rev~;
#X obj 316 593 rpole~;
#X obj 317 573 rzero_rev~;
#X obj 255 615 outlet~;
#X obj 315 615 outlet~;
#X obj 195 616 outlet~;
#X obj 480 21 inlet~;
#X text 488 39 scaled filter coeff;
#X text 207 600 4th;
#X text 270 598 8th;
#X text 368 599 12th;
#X text 173 52 12 all pass filters;
#N canvas 0 50 597 388 copyrightInfo2020 0;
#X text 74 306 j.raski@gmail.com;
#X text 43 19 This program creates generative music on an electronic
synthesiser. Copyright (C) 2020 Jerry Z. Raski This program is free
software: you can redistribute it and/or modify it under the terms
of the GNU General Public License as published by the Free Software
Foundation \, either version 3 of the License \, or (at your option)
any later version. This program is distributed in the hope that it
will be useful \, but WITHOUT ANY WARRANTY \; without even the implied
warranty of MERCHANTABILITY or FITNESS FOR A PARTICULAR PURPOSE. See
the GNU General Public License for more details. You should have received
a copy of the GNU General Public License along with this program. If
not \, see <https://www.gnu.org/licenses/>.;
#X restore 533 614 pd copyrightInfo2020;
#X connect 0 0 3 0;
#X connect 1 0 0 0;
#X connect 2 0 5 0;
#X connect 3 0 2 0;
#X connect 4 0 7 0;
#X connect 5 0 4 0;
#X connect 6 0 10 0;
#X connect 6 0 27 0;
#X connect 7 0 6 0;
#X connect 8 0 1 0;
#X connect 9 0 12 0;
#X connect 10 0 9 0;
#X connect 11 0 14 0;
#X connect 12 0 11 0;
#X connect 13 0 16 0;
#X connect 14 0 13 0;
#X connect 15 0 18 0;
#X connect 15 0 25 0;
#X connect 16 0 15 0;
#X connect 17 0 20 0;
#X connect 18 0 17 0;
#X connect 19 0 22 0;
#X connect 20 0 19 0;
#X connect 21 0 24 0;
#X connect 22 0 21 0;
#X connect 23 0 26 0;
#X connect 24 0 23 0;
#X connect 28 0 1 1;
#X connect 28 0 0 1;
#X connect 28 0 3 1;
#X connect 28 0 2 1;
#X connect 28 0 5 1;
#X connect 28 0 4 1;
#X connect 28 0 7 1;
#X connect 28 0 6 1;
#X connect 28 0 10 1;
#X connect 28 0 9 1;
#X connect 28 0 12 1;
#X connect 28 0 11 1;
#X connect 28 0 14 1;
#X connect 28 0 13 1;
#X connect 28 0 16 1;
#X connect 28 0 15 1;
#X connect 28 0 18 1;
#X connect 28 0 17 1;
#X connect 28 0 20 1;
#X connect 28 0 19 1;
#X connect 28 0 22 1;
#X connect 28 0 21 1;
#X connect 28 0 24 1;
#X connect 28 0 23 1;
#X restore 159 250 pd 12allPass;
#X text 62 98 dry input;
#X obj 299 313 int;
#X obj 300 256 r \$1-n_stages;
#X obj 159 334 *~;
#X obj 199 333 *~;
#X obj 239 334 *~;
#X obj 258 271 >= 1;
#X obj 258 291 >= 2;
#X obj 257 311 >= 3;
#X obj 158 354 +~;
#X obj 158 374 +~;
#X obj 78 118 inlet~;
#X obj 114 558 outlet~;
#X obj 77 497 *~;
#X obj 157 499 *~;
#X obj 230 384 / 100;
#X obj 230 402 pack 0 50;
#X obj 230 420 line~;
#X obj 96 435 -~;
#X obj 96 397 loadbang;
#X msg 96 416 1;
#X obj 115 530 +~;
#X text 314 365 mixing wet dry;
#X obj 264 104 *~ -1;
#X obj 264 122 +~ 1;
#X obj 239 142 min~;
#X obj 230 366 r \$1-wetdry;
#X obj 240 65 r \$1-LFOspeed;
#X obj 300 143 r \$1-LFOdepth;
#X text 129 143 scaled saw wave;
#X obj 240 84 phasor~ 0.3;
#X obj 240 180 +~ 0.8125;
#X obj 240 161 *~ 0.3125;
#X text 199 485 write to delay line;
#X text 405 394 read from delay line;
#X obj 158 445 +~;
#X obj 309 430 *~ 0.7;
#X obj 300 294 + 1;
#X obj 300 275 clip 0 2;
#X obj 361 430 r \$1-fbgain;
#X obj 309 392 r \$1-fbdelay;
#X obj 241 224 *~;
#X obj 271 204 r \$1-waveform;
#X obj 271 223 == 0;
#X obj 403 65 r \$1-LFOspeed;
#X obj 403 84 osc~ 0.3;
#X obj 462 102 r \$1-LFOdepth;
#X obj 402 120 *~ 0.3125;
#X obj 403 216 *~;
#X obj 433 196 r \$1-waveform;
#X obj 433 215 == 1;
#X obj 402 142 *~ 0.25;
#X obj 403 162 +~ 0.9;
#X text 457 140 scaled sine wave;
#X obj 543 158 r \$1-manualAmt;
#X obj 543 196 + 0.8125;
#X obj 543 177 * 0.16;
#X obj 543 214 sig~;
#X obj 542 235 *~;
#X obj 580 215 r \$1-waveform;
#X obj 580 234 == 2;
#X text 650 590 6-4-2018 jzr;
#X text 53 31 Controls like those found on a guitar pedal;
#X text 53 19 Based on example H15;
#X obj 189 500 delwrite~ \$0-del 2000;
#X obj 309 411 delread~ \$0-del 2000;
#N canvas 0 50 597 388 copyrightInfo2020 0;
#X text 74 306 j.raski@gmail.com;
#X text 43 19 This program creates generative music on an electronic
synthesiser. Copyright (C) 2020 Jerry Z. Raski This program is free
software: you can redistribute it and/or modify it under the terms
of the GNU General Public License as published by the Free Software
Foundation \, either version 3 of the License \, or (at your option)
any later version. This program is distributed in the hope that it
will be useful \, but WITHOUT ANY WARRANTY \; without even the implied
warranty of MERCHANTABILITY or FITNESS FOR A PARTICULAR PURPOSE. See
the GNU General Public License for more details. You should have received
a copy of the GNU General Public License along with this program. If
not \, see <https://www.gnu.org/licenses/>.;
#X restore 596 569 pd copyrightInfo2020;
#X connect 0 0 4 0;
#X connect 0 1 5 0;
#X connect 0 2 6 0;
#X connect 2 0 7 0;
#X connect 2 0 8 0;
#X connect 2 0 9 0;
#X connect 3 0 39 0;
#X connect 4 0 10 0;
#X connect 5 0 10 1;
#X connect 6 0 11 1;
#X connect 7 0 4 1;
#X connect 8 0 5 1;
#X connect 9 0 6 1;
#X connect 10 0 11 0;
#X connect 11 0 36 0;
#X connect 12 0 0 0;
#X connect 12 0 14 0;
#X connect 14 0 22 0;
#X connect 15 0 22 1;
#X connect 16 0 17 0;
#X connect 17 0 18 0;
#X connect 18 0 15 1;
#X connect 18 0 19 1;
#X connect 19 0 14 1;
#X connect 20 0 21 0;
#X connect 21 0 19 0;
#X connect 22 0 13 0;
#X connect 24 0 25 0;
#X connect 25 0 26 1;
#X connect 26 0 33 0;
#X connect 27 0 16 0;
#X connect 28 0 31 0;
#X connect 29 0 33 1;
#X connect 31 0 24 0;
#X connect 31 0 26 0;
#X connect 32 0 42 0;
#X connect 33 0 32 0;
#X connect 36 0 15 0;
#X connect 36 0 65 0;
#X connect 37 0 36 1;
#X connect 38 0 2 0;
#X connect 39 0 38 0;
#X connect 40 0 37 1;
#X connect 41 0 66 0;
#X connect 42 0 0 1;
#X connect 43 0 44 0;
#X connect 44 0 42 1;
#X connect 45 0 46 0;
#X connect 46 0 48 0;
#X connect 47 0 48 1;
#X connect 48 0 52 0;
#X connect 49 0 0 1;
#X connect 50 0 51 0;
#X connect 51 0 49 1;
#X connect 52 0 53 0;
#X connect 53 0 49 0;
#X connect 55 0 57 0;
#X connect 56 0 58 0;
#X connect 57 0 56 0;
#X connect 58 0 59 0;
#X connect 59 0 0 1;
#X connect 60 0 61 0;
#X connect 61 0 59 1;
#X connect 66 0 37 0;
