#N canvas 499 50 477 441 10;
#X obj 52 44 r \$1-rLFO1;
#X obj 52 110 *~;
#X obj 81 92 r \$1-amtLFO1;
#X obj 81 110 / 50;
#N canvas 53 50 633 541 wavesLFO1 0;
#X obj 285 3 inlet;
#X obj 71 115 phasor~;
#X obj 95 135 *~ -1;
#X obj 95 153 +~ 1;
#X obj 70 173 min~;
#X obj 71 196 -~ 0.25;
#X obj 70 218 *~ 4;
#X obj 176 115 phasor~;
#X obj 201 191 *~ -1;
#X obj 201 211 +~ 1;
#X obj 177 234 min~;
#X obj 177 158 -~ 0.5;
#X obj 177 135 *~ -1;
#X obj 176 255 +~ 1;
#X obj 177 274 *~ 2;
#X text 162 95 saw descending;
#X text 278 95 ramp ascend;
#X obj 285 114 phasor~;
#X obj 285 137 -~ 0.5;
#X obj 285 158 *~ 2;
#X obj 385 156 phasor~;
#X obj 386 184 +~;
#X obj 404 135 * -1;
#X obj 451 156 phasor~;
#X msg 446 134 0;
#X obj 385 207 -~ 1;
#X msg 497 134 0.5;
#X obj 385 229 *~ 2;
#X text 398 95 square wave;
#X text 46 97 triangle wave;
#X obj 69 335 *~;
#X obj 87 317 == 0;
#X obj 87 298 r \$1-sLFO1;
#X obj 177 334 *~;
#X obj 195 297 r \$1-sLFO1;
#X obj 286 336 *~;
#X obj 304 299 r \$1-sLFO1;
#X obj 386 334 *~;
#X obj 404 297 r \$1-sLFO1;
#X obj 483 337 *~;
#X obj 501 300 r \$1-sLFO1;
#X obj 195 316 == 1;
#X obj 304 318 == 2;
#X obj 404 316 == 3;
#X obj 501 319 == 4;
#X obj 69 372 +~;
#X obj 286 373 +~;
#X obj 268 416 +~;
#X obj 267 439 outlet~;
#X obj 484 278 osc~;
#X text 494 260 cosine;
#X obj 337 4 loadbang;
#X msg 337 22 0;
#X connect 0 0 1 0;
#X connect 0 0 7 0;
#X connect 0 0 17 0;
#X connect 0 0 22 0;
#X connect 0 0 20 0;
#X connect 0 0 49 0;
#X connect 1 0 2 0;
#X connect 1 0 4 0;
#X connect 2 0 3 0;
#X connect 3 0 4 1;
#X connect 4 0 5 0;
#X connect 5 0 6 0;
#X connect 6 0 30 0;
#X connect 7 0 12 0;
#X connect 8 0 9 0;
#X connect 9 0 10 1;
#X connect 10 0 13 0;
#X connect 11 0 10 0;
#X connect 11 0 8 0;
#X connect 12 0 11 0;
#X connect 13 0 14 0;
#X connect 14 0 33 0;
#X connect 17 0 18 0;
#X connect 18 0 19 0;
#X connect 19 0 35 0;
#X connect 20 0 21 0;
#X connect 21 0 25 0;
#X connect 22 0 23 0;
#X connect 23 0 21 1;
#X connect 24 0 20 1;
#X connect 25 0 27 0;
#X connect 26 0 23 1;
#X connect 27 0 37 0;
#X connect 30 0 45 0;
#X connect 31 0 30 1;
#X connect 32 0 31 0;
#X connect 33 0 45 1;
#X connect 34 0 41 0;
#X connect 35 0 46 0;
#X connect 36 0 42 0;
#X connect 37 0 46 1;
#X connect 38 0 43 0;
#X connect 39 0 47 1;
#X connect 40 0 44 0;
#X connect 41 0 33 1;
#X connect 42 0 35 1;
#X connect 43 0 37 1;
#X connect 44 0 39 1;
#X connect 45 0 47 0;
#X connect 46 0 47 1;
#X connect 47 0 48 0;
#X connect 49 0 39 0;
#X connect 51 0 52 0;
#X connect 52 0 17 1;
#X connect 52 0 1 1;
#X connect 52 0 7 1;
#X connect 52 0 24 0;
#X connect 52 0 26 0;
#X connect 52 0 49 1;
#X restore 52 65 pd wavesLFO1;
#X obj 183 109 *~;
#X obj 212 109 / 50;
#X obj 183 43 r \$1-rLFO2;
#N canvas 53 50 641 543 wavesLFO2 0;
#X obj 287 53 inlet;
#X obj 73 120 phasor~;
#X obj 97 140 *~ -1;
#X obj 97 158 +~ 1;
#X obj 72 178 min~;
#X obj 73 201 -~ 0.25;
#X obj 72 223 *~ 4;
#X obj 178 120 phasor~;
#X obj 203 196 *~ -1;
#X obj 203 216 +~ 1;
#X obj 179 239 min~;
#X obj 179 163 -~ 0.5;
#X obj 179 140 *~ -1;
#X obj 178 260 +~ 1;
#X obj 179 279 *~ 2;
#X text 164 100 saw descending;
#X text 280 100 ramp ascend;
#X obj 287 119 phasor~;
#X obj 287 142 -~ 0.5;
#X obj 287 163 *~ 2;
#X obj 387 161 phasor~;
#X obj 388 189 +~;
#X obj 406 140 * -1;
#X obj 453 161 phasor~;
#X obj 448 118 loadbang;
#X msg 448 139 0;
#X obj 387 212 -~ 1;
#X msg 499 139 0.5;
#X obj 387 234 *~ 2;
#X text 400 100 square wave;
#X text 48 102 triangle wave;
#X obj 71 340 *~;
#X obj 89 322 == 0;
#X obj 179 339 *~;
#X obj 288 341 *~;
#X obj 388 339 *~;
#X obj 485 342 *~;
#X obj 197 321 == 1;
#X obj 306 323 == 2;
#X obj 406 321 == 3;
#X obj 503 324 == 4;
#X obj 71 377 +~;
#X obj 288 378 +~;
#X obj 270 421 +~;
#X obj 269 444 outlet~;
#X obj 89 303 r \$1-sLFO2;
#X obj 197 302 r \$1-sLFO2;
#X obj 306 304 r \$1-sLFO2;
#X obj 406 302 r \$1-sLFO2;
#X obj 503 305 r \$1-sLFO2;
#X obj 486 283 osc~;
#X text 486 263 cosine;
#X connect 0 0 1 0;
#X connect 0 0 7 0;
#X connect 0 0 17 0;
#X connect 0 0 22 0;
#X connect 0 0 20 0;
#X connect 0 0 50 0;
#X connect 1 0 2 0;
#X connect 1 0 4 0;
#X connect 2 0 3 0;
#X connect 3 0 4 1;
#X connect 4 0 5 0;
#X connect 5 0 6 0;
#X connect 6 0 31 0;
#X connect 7 0 12 0;
#X connect 8 0 9 0;
#X connect 9 0 10 1;
#X connect 10 0 13 0;
#X connect 11 0 10 0;
#X connect 11 0 8 0;
#X connect 12 0 11 0;
#X connect 13 0 14 0;
#X connect 14 0 33 0;
#X connect 17 0 18 0;
#X connect 18 0 19 0;
#X connect 19 0 34 0;
#X connect 20 0 21 0;
#X connect 21 0 26 0;
#X connect 22 0 23 0;
#X connect 23 0 21 1;
#X connect 24 0 25 0;
#X connect 24 0 27 0;
#X connect 25 0 20 1;
#X connect 26 0 28 0;
#X connect 27 0 23 1;
#X connect 28 0 35 0;
#X connect 31 0 41 0;
#X connect 32 0 31 1;
#X connect 33 0 41 1;
#X connect 34 0 42 0;
#X connect 35 0 42 1;
#X connect 36 0 43 1;
#X connect 37 0 33 1;
#X connect 38 0 34 1;
#X connect 39 0 35 1;
#X connect 40 0 36 1;
#X connect 41 0 43 0;
#X connect 42 0 43 1;
#X connect 43 0 44 0;
#X connect 45 0 32 0;
#X connect 46 0 37 0;
#X connect 47 0 38 0;
#X connect 48 0 39 0;
#X connect 49 0 40 0;
#X connect 50 0 36 0;
#X restore 183 64 pd wavesLFO2;
#X obj 212 91 r \$1-amtLFO2;
#X floatatom 268 140 5 0 100 0 - - -, f 5;
#X obj 109 269 *~;
#X obj 183 271 *~;
#X obj 268 155 / 100;
#X obj 268 174 pack 0 50;
#X obj 268 193 line~;
#X obj 128 207 -~;
#X obj 128 169 loadbang;
#X msg 128 188 1;
#X text 314 138 mixing / balancing;
#X obj 141 302 +~;
#X obj 140 321 outlet~;
#X obj 268 120 r \$1-balLFO;
#X connect 0 0 4 0;
#X connect 1 0 11 0;
#X connect 2 0 3 0;
#X connect 3 0 1 1;
#X connect 4 0 1 0;
#X connect 5 0 12 0;
#X connect 6 0 5 1;
#X connect 7 0 8 0;
#X connect 8 0 5 0;
#X connect 9 0 6 0;
#X connect 10 0 13 0;
#X connect 11 0 20 0;
#X connect 12 0 20 1;
#X connect 13 0 14 0;
#X connect 14 0 15 0;
#X connect 15 0 12 1;
#X connect 15 0 16 1;
#X connect 16 0 11 1;
#X connect 17 0 18 0;
#X connect 18 0 16 0;
#X connect 20 0 21 0;
#X connect 22 0 10 0;
