#N canvas 193 154 299 228 12;
#N canvas 707 96 617 477 hann-window 1;
#N canvas 0 50 450 300 (subpatch) 0;
#X array \$0-hann 32768 float 0;
#X coords 0 1 32767 0 300 100 1 0 0;
#X restore 82 311 graph;
#X obj 378 165 osc~;
#X obj 378 190 *~ -0.5;
#X obj 378 214 +~ 0.5;
#X obj 331 247 tabwrite~ \$0-hann;
#X obj 38 173 /;
#X obj 127 142 samplerate~;
#X obj 177 204 swap;
#X obj 177 228 /;
#X obj 49 201 * 1000;
#X obj 38 115 t f b f;
#X msg 173 92 resize \$1;
#X obj 173 116 s \$0-hann;
#X msg 382 130 0;
#X obj 330 131 t f b;
#X text 15 8 calculate Hann window table (variable window size) and
constants window-hz (fundamental frequency of analysis) \, window-sec
and window-msec (analysis window size in seconds and msec).;
#X obj 37 88 r \$1-wSize;
#X floatatom 25 149 5 0 0 0 - - -;
#X obj 50 228 s wMsec;
#X obj 38 251 s wSec;
#X obj 177 252 s wHz;
#X obj 330 105 r wHz;
#N canvas 0 50 597 388 copyrightInfo2020 0;
#X text 74 306 j.raski@gmail.com;
#X text 43 19 This program creates generative music on an electronic
synthesiser. Copyright (C) 2020 Jerry Z. Raski This program is free
software: you can redistribute it and/or modify it under the terms
of the GNU General Public License as published by the Free Software
Foundation \, either version 3 of the License \, or (at your option)
any later version. This program is distributed in the hope that it
will be useful \, but WITHOUT ANY WARRANTY \; without even the implied
warranty of MERCHANTABILITY or FITNESS FOR A PARTICULAR PURPOSE. See
the GNU General Public License for more details. You should have received
a copy of the GNU General Public License along with this program. If
not \, see <https://www.gnu.org/licenses/>.;
#X restore 28 441 pd copyrightInfo2020;
#X connect 1 0 2 0;
#X connect 2 0 3 0;
#X connect 3 0 4 0;
#X connect 5 0 9 0;
#X connect 5 0 19 0;
#X connect 6 0 5 1;
#X connect 6 0 7 1;
#X connect 7 0 8 0;
#X connect 7 1 8 1;
#X connect 8 0 20 0;
#X connect 9 0 18 0;
#X connect 10 0 5 0;
#X connect 10 0 7 0;
#X connect 10 1 6 0;
#X connect 10 2 11 0;
#X connect 11 0 12 0;
#X connect 13 0 1 1;
#X connect 14 0 1 0;
#X connect 14 1 4 0;
#X connect 14 1 13 0;
#X connect 16 0 10 0;
#X connect 16 0 17 0;
#X connect 21 0 14 0;
#X restore 91 141 pd hann-window;
#N canvas 642 50 695 571 pS 1;
#X obj 186 212 *~;
#X obj 190 475 *~;
#X obj 187 234 rfft~;
#X obj 189 436 rifft~;
#X obj 191 496 outlet~;
#X obj 526 103 block~;
#X obj 190 362 *~;
#X obj 229 361 *~;
#X obj 188 268 *~;
#X obj 220 268 *~;
#X obj 189 289 +~;
#X obj 190 310 sqrt~;
#X text 120 311 magnitude;
#X obj 228 417 *~;
#X obj 246 398 expr 2/(3*$f1);
#X obj 190 416 *~;
#X obj 307 298 -~ 0.25;
#X obj 307 316 wrap~;
#X obj 265 334 cos~;
#X obj 307 335 cos~;
#X obj 203 193 tabreceive~ \$0-hann;
#X obj 207 457 tabreceive~ \$0-hann;
#X obj 185 46 bang~;
#X obj 185 66 t b b b;
#X obj 185 108 f;
#X obj 185 155 pack f f;
#X obj 209 129 f;
#X obj 231 86 f;
#X msg 249 46 0;
#X obj 185 174 tabplay~ waves;
#X text 317 219 random phase;
#X text 326 379 scale for hann;
#X floatatom 390 87 8 0 0 0 - - -;
#X floatatom 541 68 5 0 0 0 - - -;
#X obj 361 108 >=;
#X obj 392 107 sel 1;
#X msg 526 85 set \$1 4;
#X obj 262 86 + 1024;
#X obj 227 109 + 4096;
#X text 339 143 start at 0 \, play "wSize" samples;
#X text 248 155 shift right by "offset" \, play "wSize" samples;
#X text 451 167 rinse and repeat;
#X obj 326 48 r \$1-offset;
#X obj 379 67 r \$1-sampSize;
#X obj 526 50 r \$1-wSize;
#X obj 278 108 r \$1-wSize;
#X obj 246 380 r \$1-wSize;
#X obj 127 73 s sync;
#X obj 264 220 noise~;
#X obj 266 278 *~ 3.14157;
#X obj 265 239 -~ 0.5;
#X obj 266 259 *~ 2;
#X text 343 277 -pi to pi;
#N canvas 0 50 597 388 copyrightInfo2020 0;
#X text 74 306 j.raski@gmail.com;
#X text 43 19 This program creates generative music on an electronic
synthesiser. Copyright (C) 2020 Jerry Z. Raski This program is free
software: you can redistribute it and/or modify it under the terms
of the GNU General Public License as published by the Free Software
Foundation \, either version 3 of the License \, or (at your option)
any later version. This program is distributed in the hope that it
will be useful \, but WITHOUT ANY WARRANTY \; without even the implied
warranty of MERCHANTABILITY or FITNESS FOR A PARTICULAR PURPOSE. See
the GNU General Public License for more details. You should have received
a copy of the GNU General Public License along with this program. If
not \, see <https://www.gnu.org/licenses/>.;
#X restore 31 530 pd copyrightInfo2020;
#X connect 0 0 2 0;
#X connect 1 0 4 0;
#X connect 2 0 8 0;
#X connect 2 0 8 1;
#X connect 2 1 9 0;
#X connect 2 1 9 1;
#X connect 3 0 1 0;
#X connect 6 0 15 0;
#X connect 7 0 13 0;
#X connect 8 0 10 0;
#X connect 9 0 10 1;
#X connect 10 0 11 0;
#X connect 11 0 6 0;
#X connect 11 0 7 0;
#X connect 13 0 3 1;
#X connect 14 0 13 1;
#X connect 14 0 15 1;
#X connect 15 0 3 0;
#X connect 16 0 17 0;
#X connect 17 0 19 0;
#X connect 18 0 6 1;
#X connect 19 0 7 1;
#X connect 20 0 0 1;
#X connect 21 0 1 1;
#X connect 22 0 23 0;
#X connect 22 0 47 0;
#X connect 23 0 24 0;
#X connect 23 1 26 0;
#X connect 23 2 27 0;
#X connect 24 0 25 0;
#X connect 25 0 29 0;
#X connect 26 0 25 1;
#X connect 26 0 34 0;
#X connect 27 0 24 1;
#X connect 27 0 37 0;
#X connect 27 0 38 0;
#X connect 28 0 27 1;
#X connect 29 0 0 0;
#X connect 34 0 35 0;
#X connect 35 0 28 0;
#X connect 36 0 5 0;
#X connect 37 0 27 1;
#X connect 38 0 26 1;
#X connect 42 0 37 1;
#X connect 43 0 32 0;
#X connect 43 0 34 1;
#X connect 44 0 36 0;
#X connect 44 0 33 0;
#X connect 45 0 38 1;
#X connect 46 0 14 0;
#X connect 48 0 50 0;
#X connect 49 0 16 0;
#X connect 49 0 18 0;
#X connect 50 0 51 0;
#X connect 51 0 49 0;
#X restore 105 61 pd pS;
#X obj 104 100 outlet~;
#X obj 105 81 *~ 40;
#N canvas 0 50 597 388 copyrightInfo2020 0;
#X text 74 306 j.raski@gmail.com;
#X text 43 19 This program creates generative music on an electronic
synthesiser. Copyright (C) 2020 Jerry Z. Raski This program is free
software: you can redistribute it and/or modify it under the terms
of the GNU General Public License as published by the Free Software
Foundation \, either version 3 of the License \, or (at your option)
any later version. This program is distributed in the hope that it
will be useful \, but WITHOUT ANY WARRANTY \; without even the implied
warranty of MERCHANTABILITY or FITNESS FOR A PARTICULAR PURPOSE. See
the GNU General Public License for more details. You should have received
a copy of the GNU General Public License along with this program. If
not \, see <https://www.gnu.org/licenses/>.;
#X restore 13 192 pd copyrightInfo2020;
#X connect 1 0 3 0;
#X connect 3 0 2 0;
